<svg id="icons" enable-background="new 0 0 64 64" height="512" viewBox="0 0 64 64" width="512" xmlns="http://www.w3.org/2000/svg"><g><g><g><path d="m17.001 42.49h-1c-.553 0-1-.447-1-1s.447-1 1-1h1c.553 0 1 .447 1 1s-.447 1-1 1z" fill="#d3374e"/></g><g><path d="m6.004 42.49h-1c-.553 0-1-.447-1-1s.447-1 1-1h1c.553 0 1 .447 1 1s-.447 1-1 1z" fill="#d3374e"/></g></g><g><g><path d="m37.998 21.479h-1c-.553 0-1-.447-1-1s.447-1 1-1h1c.553 0 1 .447 1 1s-.447 1-1 1z" fill="#434a54"/></g><g><path d="m27.001 21.479h-1c-.553 0-1-.447-1-1s.447-1 1-1h1c.553 0 1 .447 1 1s-.447 1-1 1z" fill="#434a54"/></g></g><g><g><path d="m58.999 42.49h-1c-.553 0-1-.447-1-1s.447-1 1-1h1c.553 0 1 .447 1 1s-.447 1-1 1z" fill="#edab37"/></g><g><path d="m48.002 42.49h-1c-.553 0-1-.447-1-1s.447-1 1-1h1c.553 0 1 .447 1 1s-.447 1-1 1z" fill="#edab37"/></g></g><g><path d="m56 41.508 1 3c0 .029-.03 1-4 1s-4-.971-4-1l1-3z" fill="#5d9cec"/></g><g><path d="m50 32.518h6v8.99h-6z" fill="#ffce54"/></g><g><path d="m58.3 29.066-2.3 3.452h-6l-2.29-3.451-.04-.039c.35-.32.82-.51 1.33-.51h8c.52 0 .99.189 1.34.51z" fill="#edab37"/></g><g><path d="m59 30.518v10.99 5.99c0 2.219-1.79 4-4 4h-4c-2.21 0-4-1.781-4-4v-5.99-10.99c0-.59.26-1.131.67-1.49l.04.039 2.29 3.451v8.99l-1 3c0 .029.03 1 4 1s4-.971 4-1l-1-3v-8.99l2.3-3.451.04-.039c.41.368.66.9.66 1.49z" fill="#f6bb42"/></g><g><path d="m29 11.508h6v8.99h-6z" fill="#656d78"/></g><g><path d="m37.3 8.057-2.3 3.451h-6l-2.3-3.451-.04-.039c.35-.32.82-.51 1.34-.51h8c.52 0 .99.189 1.34.51z" fill="#434a54"/></g><g><path d="m35 20.498 1 3c0 .029-.03 1-4 1s-4-.971-4-1l1-3z" fill="#5d9cec"/></g><g><path d="m38 9.508v10.99 4 1.99c0 2.219-1.79 4-4 4h-4c-2.21 0-4-1.781-4-4v-1.99-4-10.99c0-.59.26-1.131.66-1.49l.04.039 2.3 3.451v8.99l-1 3c0 .029.03 1 4 1s4-.971 4-1l-1-3v-8.99l2.3-3.451.04-.039c.41.369.66.9.66 1.49z" fill="#545c66"/></g><g><path d="m8 32.518h6v8.99h-6z" fill="#ed5565"/></g><g><path d="m14 41.508 1 3c0 .029-.03 1-4 1s-4-.971-4-1l1-3z" fill="#5d9cec"/></g><g><path d="m8 32.518-2.29-3.451-.04-.039c.35-.32.82-.51 1.33-.51h8c.52 0 .99.189 1.34.51l-.04.039-2.3 3.451z" fill="#d3374e"/></g><g><path d="m8 41.508-1 3c0 .029.03 1 4 1s4-.971 4-1l-1-3v-8.99l2.3-3.451.04-.039c.4.359.66.9.66 1.49v10.99 5.99c0 2.219-1.79 4-4 4h-4c-2.21 0-4-1.781-4-4v-5.99-10.99c0-.59.26-1.131.67-1.49l.04.039 2.29 3.451z" fill="#da4453"/></g><g><g><path d="m62.999 56.492h-61.996c-.553 0-1-.447-1-1s.447-1 1-1h61.996c.553 0 1 .447 1 1s-.447 1-1 1z" fill="#ccd1d9"/></g><g><path d="m62.999 56.492c-.553 0-1-.447-1-1v-31.012c0-.553.447-1 1-1s1 .447 1 1v31.012c0 .553-.447 1-1 1z" fill="#ccd1d9"/></g><g><path d="m42.999 56.492c-.553 0-1-.447-1-1v-31.012c0-.553.447-1 1-1s1 .447 1 1v31.012c0 .553-.447 1-1 1z" fill="#ccd1d9"/></g><g><path d="m21.001 56.492c-.553 0-1-.447-1-1v-31.012c0-.553.447-1 1-1s1 .447 1 1v31.012c0 .553-.447 1-1 1z" fill="#ccd1d9"/></g><g><path d="m1.001 56.492c-.553 0-1-.447-1-1v-31.012c0-.553.447-1 1-1s1 .447 1 1v31.012c0 .553-.447 1-1 1z" fill="#ccd1d9"/></g><g><path d="m62.999 25.48h-1.999c-.553 0-1-.447-1-1s.447-1 1-1h1.999c.553 0 1 .447 1 1s-.447 1-1 1z" fill="#ccd1d9"/></g><g><path d="m3.001 25.48h-1.999c-.553 0-1-.447-1-1s.447-1 1-1h1.999c.553 0 1 .447 1 1s-.447 1-1 1z" fill="#ccd1d9"/></g><g><path d="m45 25.48h-4.001c-.553 0-1-.447-1-1s.447-1 1-1h4.001c.553 0 1 .447 1 1s-.447 1-1 1z" fill="#ccd1d9"/></g><g><path d="m23.003 25.48h-4.001c-.553 0-1-.447-1-1s.447-1 1-1h4.001c.553 0 1 .447 1 1s-.447 1-1 1z" fill="#ccd1d9"/></g></g><g><path d="m32 52.488c-.553 0-1-.447-1-1v-17.004c0-.553.447-1 1-1s1 .447 1 1v17.004c0 .553-.447 1-1 1z" fill="#656d78"/></g><g><path d="m32 52.488c-.256 0-.512-.098-.707-.293-.391-.391-.391-1.023 0-1.414l2-2c.391-.391 1.023-.391 1.414 0s.391 1.023 0 1.414l-2 2c-.195.196-.451.293-.707.293z" fill="#656d78"/></g><g><path d="m32 52.488c-.256 0-.512-.098-.707-.293l-2-2c-.391-.391-.391-1.023 0-1.414s1.023-.391 1.414 0l2 2c.391.391.391 1.023 0 1.414-.195.196-.451.293-.707.293z" fill="#656d78"/></g></g></svg>