<svg id="Capa_1" enable-background="new 0 0 512 512" height="512" viewBox="0 0 512 512" width="512" xmlns="http://www.w3.org/2000/svg"><g><circle cx="256" cy="199.082" fill="#e94444" r="199.082"/><path d="m256 398.165c-11.412 0-22.594-.974-33.481-2.818v116.653h66.962v-116.653c-10.887 1.844-22.069 2.818-33.481 2.818z" fill="#838383"/><path d="m222.519 395.347v35.043c10.887 1.844 22.069 2.818 33.481 2.818s22.594-.974 33.481-2.818v-35.043c-10.887 1.844-22.069 2.818-33.481 2.818s-22.594-.974-33.481-2.818z" fill="#5a5a5a"/><path d="m256 0c-6.902 0-13.721.352-20.441 1.038 100.347 10.235 178.641 94.996 178.641 198.044s-78.294 187.81-178.641 198.045c6.721.685 13.54 1.038 20.441 1.038 109.95 0 199.082-89.132 199.082-199.082s-89.132-199.083-199.082-199.083z" fill="#d83131"/><circle cx="256" cy="199.082" fill="#f8f6f6" r="160.966"/><path d="m281.652 84.153h-55.032c-14.193 0-25.739 11.547-25.739 25.739v18.227 79.919 94.641c0 9.957 8.071 18.028 18.028 18.028s18.028-8.071 18.028-18.028v-76.613h44.715c39.126 0 70.957-31.831 70.957-70.957s-31.831-70.956-70.957-70.956zm0 105.858h-44.715v-61.891-7.91h44.715c19.244 0 34.901 15.656 34.901 34.901 0 19.243-15.657 34.9-34.901 34.9z" fill="#444"/></g></svg>