<svg viewBox="0 -69 511.99978 511" xmlns="http://www.w3.org/2000/svg"><path d="m427.453125 98.734375v72.710937h64.867187l-31.933593-72.710937zm0 0"/><path d="m465.476562 250.703125h32.777344v14.6875h-32.777344zm0 0"/><path d="m88.882812 79.472656c-29.871093 0-54.175781 24.304688-54.175781 54.179688v180.523437c0 8.441407 6.84375 15.285157 15.285157 15.285157h4.96875c3.996093-33.1875 32.3125-59 66.558593-59 34.25 0 62.566407 25.8125 66.5625 59h109.703125c4-33.1875 32.3125-59 66.5625-59 34.246094 0 62.5625 25.8125 66.558594 59h52.0625c8.441406 0 15.285156-6.84375 15.285156-15.285157v-18.214843h-48.066406c-8.4375 0-15.28125-6.84375-15.28125-15.285157v-45.257812c0-8.441407 6.84375-15.285157 15.28125-15.285157h48.066406v-18.117187h-86.085937c-8.441407 0-15.285157-6.84375-15.285157-15.285156v-107.257813zm2.359376 131.675782c-8.441407 0-15.28125-6.84375-15.28125-15.285157v-60.773437c0-8.441406 6.839843-15.285156 15.28125-15.285156h100.25c8.441406 0 15.285156 6.84375 15.285156 15.285156v60.773437c0 8.441407-6.84375 15.285157-15.285156 15.285157zm271.746093-15.285157c0 8.441407-6.839843 15.285157-15.28125 15.285157h-100.25c-8.441406 0-15.285156-6.84375-15.285156-15.285157v-60.773437c0-8.441406 6.84375-15.285156 15.285156-15.285156h100.25c8.441407 0 15.28125 6.84375 15.28125 15.285156zm0 0"/><path d="m121.523438 301.027344c-20.125 0-36.492188 16.371094-36.492188 36.492187 0 20.121094 16.367188 36.492188 36.492188 36.492188 20.121093 0 36.492187-16.371094 36.492187-36.492188 0-20.121093-16.371094-36.492187-36.492187-36.492187zm0 0"/><path d="m364.347656 301.027344c-20.121094 0-36.492187 16.371094-36.492187 36.492187 0 20.121094 16.371093 36.492188 36.492187 36.492188s36.492188-16.371094 36.492188-36.492188c0-20.121093-16.371094-36.492187-36.492188-36.492187zm0 0"/><path d="m106.527344 150.375h69.683594v30.207031h-69.683594zm0 0"/><path d="m262.742188 150.375h69.679687v30.207031h-69.679687zm0 0"/><path d="m50.234375 64.871094h409.449219c6.28125 0 12.152344 3.203125 15.707031 8.5625l8.582031 12.953125c4.664063 7.035156 14.148438 8.960937 21.183594 4.296875 7.035156-4.660156 8.960938-14.144532 4.296875-21.183594l-8.582031-12.953125c-9.234375-13.925781-24.628906-22.242187-41.1875-22.242187h-274.667969c-5.554687-13.050782-18.003906-28.171876-42.09375-33.449219-8.242187-1.804688-16.390625 3.417969-18.199219 11.660156-1.804687 8.246094 3.414063 16.394531 11.660156 18.199219 3.921876.859375 7.132813 2.117187 9.777344 3.589844h-20.398437c-5.554688-13.050782-18.003907-28.171876-42.09375-33.449219-8.242188-1.804688-16.390625 3.417969-18.199219 11.660156-1.804688 8.246094 3.414062 16.394531 11.660156 18.199219 3.921875.859375 7.132813 2.117187 9.777344 3.589844h-36.671875c-19.023437 0-36.605469 11.242187-44.785156 28.644531l-3.992188 8.492187c-3.59375 7.636719-.3125 16.742188 7.328125 20.332032 2.101563.992187 4.3125 1.460937 6.492188 1.460937 5.738281 0 11.238281-3.25 13.84375-8.785156l3.988281-8.492188c3.167969-6.734375 9.890625-11.085937 17.125-11.085937zm0 0"/></svg>